<svg width="160" height="80" viewBox="0 0 160 80" xmlns="http://www.w3.org/2000/svg">
  <!-- Black background -->
  <rect width="160" height="80" fill="#0d1117"/>
  
  <!-- L letter - pixel art style -->
  <g fill="#ffffff">
    <!-- L vertical line -->
    <rect x="20" y="10" width="10" height="50"/>
    <rect x="30" y="10" width="10" height="50"/>
    <!-- L horizontal line -->
    <rect x="40" y="50" width="10" height="10"/>
    <rect x="50" y="50" width="10" height="10"/>
    <rect x="60" y="50" width="10" height="10"/>
  </g>
  
  <!-- T letter - pixel art style -->
  <g fill="#ffffff">
    <!-- T horizontal top line -->
    <rect x="90" y="10" width="10" height="10"/>
    <rect x="100" y="10" width="10" height="10"/>
    <rect x="110" y="10" width="10" height="10"/>
    <rect x="120" y="10" width="10" height="10"/>
    <rect x="130" y="10" width="10" height="10"/>
    <!-- T vertical line -->
    <rect x="110" y="20" width="10" height="10"/>
    <rect x="110" y="30" width="10" height="10"/>
    <rect x="110" y="40" width="10" height="10"/>
    <rect x="110" y="50" width="10" height="10"/>
  </g>
</svg>
